<?xml version="1.0" standalone="no"?>
<!DOCTYPE svg PUBLIC "-//W3C//DTD SVG 20010904//EN"
 "http://www.w3.org/TR/2001/REC-SVG-20010904/DTD/svg10.dtd">
<svg version="1.0" xmlns="http://www.w3.org/2000/svg"
 width="1469.000000pt" height="1238.000000pt" viewBox="0 0 1469.000000 1238.000000"
 preserveAspectRatio="xMidYMid meet">

<g transform="translate(0.000000,1238.000000) scale(0.100000,-0.100000)"
fill="#000000" stroke="none">
<path d="M6490 11085 l-35 -13 37 -1 c54 -1 87 -43 56 -69 -7 -5 -95 -12 -198
-15 -205 -5 -257 -15 -401 -77 -122 -52 -219 -119 -334 -232 l-100 -99 60 27
c134 59 321 135 514 209 199 76 204 78 231 61 36 -20 87 -21 136 0 71 30 155
3 464 -147 298 -145 509 -284 763 -502 63 -55 67 -61 62 -91 -10 -49 19 -77
82 -83 l50 -5 228 -254 228 -254 100 0 c93 0 99 1 86 18 -68 87 -233 275 -383
436 l-98 106 31 26 c64 53 23 145 -59 132 l-22 -3 22 -28 c24 -31 20 -42 -20
-52 -21 -5 -41 9 -140 100 -271 250 -584 465 -839 575 -84 37 -230 84 -339
111 -42 10 -43 11 -42 47 3 54 1 64 -9 58 -14 -9 -41 4 -41 20 0 18 -43 17
-90 -1z"/>
<path d="M5820 10979 c-129 -33 -177 -56 -300 -143 -135 -95 -220 -167 -319
-272 -139 -147 -234 -302 -311 -506 -27 -72 -37 -88 -61 -98 -36 -15 -58 -75
-40 -108 10 -19 2 -40 -54 -153 -36 -72 -65 -133 -65 -135 0 -2 54 -4 121 -4
l120 0 55 113 c30 61 62 126 72 142 9 17 18 32 19 34 1 2 13 1 26 -3 15 -3 27
-16 31 -31 10 -38 44 -33 62 10 7 19 14 43 14 53 0 22 -33 53 -74 70 -24 11
-27 16 -21 40 35 140 215 480 315 593 l39 44 -34 8 c-23 6 -32 13 -28 23 3 8
1 14 -5 14 -18 0 -22 -29 -5 -39 14 -7 13 -10 -6 -16 -11 -3 -19 -11 -16 -16
4 -5 -2 -9 -11 -9 -16 0 -16 2 1 20 10 11 15 23 12 27 -4 3 -16 -6 -28 -20
-11 -15 -25 -27 -31 -27 -6 0 -3 9 6 19 10 11 15 25 11 32 -5 7 -3 10 6 7 8
-3 22 2 32 11 10 8 35 16 55 18 29 1 33 0 20 -8 -25 -14 -22 -29 4 -29 27 0
58 28 51 46 -4 10 0 12 13 7 12 -4 15 -3 10 5 -4 7 -1 12 8 12 9 0 16 4 16 10
0 10 47 60 57 60 3 0 13 8 22 18 9 11 59 48 111 83 52 35 98 68 102 73 3 5 16
11 28 13 12 2 30 8 39 13 13 8 12 9 -9 9 -14 -1 -41 -5 -60 -10z m-10 -23 c0
-3 -4 -8 -10 -11 -5 -3 -10 -1 -10 4 0 6 5 11 10 11 6 0 10 -2 10 -4z m-100
-46 c-24 -15 -36 -11 -14 4 10 8 21 12 24 10 2 -3 -2 -9 -10 -14z m-87 -27
c-7 -2 -13 -11 -13 -19 0 -9 4 -13 8 -10 5 3 9 -1 9 -9 0 -8 -6 -15 -14 -15
-7 0 -13 11 -13 23 0 26 8 37 24 36 6 0 5 -3 -1 -6z m-40 -43 c-3 -11 -7 -20
-9 -20 -2 0 -4 9 -4 20 0 11 4 20 9 20 5 0 7 -9 4 -20z m-36 -21 c-9 -6 -17
-21 -17 -34 0 -14 -4 -25 -10 -25 -5 0 -7 7 -4 15 4 9 0 15 -10 15 -9 0 -16 5
-16 11 0 5 4 7 10 4 5 -3 20 3 32 14 12 12 24 18 27 15 3 -3 -2 -10 -12 -15z
m-74 -65 c-15 -13 -24 -27 -20 -31 5 -4 11 -2 15 4 5 8 13 9 22 3 13 -8 12
-10 -2 -10 -10 0 -18 -5 -18 -11 0 -5 -4 -7 -10 -4 -5 3 -10 1 -10 -4 0 -6 -4
-11 -10 -11 -5 0 -7 7 -4 15 4 8 1 15 -5 15 -6 0 -11 -4 -11 -9 0 -5 -7 -12
-15 -15 -13 -5 -12 -1 2 18 10 13 21 22 26 19 4 -2 7 4 7 13 0 10 3 14 7 11 9
-9 34 13 27 24 -3 5 2 6 11 3 13 -5 11 -11 -12 -30z m47 -10 c0 -2 -7 -4 -15
-4 -8 0 -15 4 -15 10 0 5 7 7 15 4 8 -4 15 -8 15 -10z m-55 -83 c-3 -6 -14
-11 -23 -11 -13 0 -13 2 4 14 21 15 30 14 19 -3z m-68 -77 c-3 -3 -12 -4 -19
-1 -8 3 -5 6 6 6 11 1 17 -2 13 -5z m-107 -14 c-20 -13 -33 -13 -25 0 3 6 14
10 23 10 15 0 15 -2 2 -10z m45 0 c-3 -5 -11 -10 -16 -10 -6 0 -7 5 -4 10 3 6
11 10 16 10 6 0 7 -4 4 -10z m32 -16 c-3 -3 -12 -4 -19 -1 -8 3 -5 6 6 6 11 1
17 -2 13 -5z m-63 -15 c-2 -4 -13 -9 -24 -12 -13 -3 -18 -1 -13 6 4 7 0 8 -11
4 -9 -4 -15 -3 -12 2 3 5 19 8 35 7 16 0 27 -4 25 -7z m46 -15 c0 -2 -7 -4
-15 -4 -8 0 -15 4 -15 10 0 5 7 7 15 4 8 -4 15 -8 15 -10z m-66 -16 c-6 -9
-64 -5 -64 4 0 4 15 6 34 5 19 -1 32 -5 30 -9z m41 -8 c-3 -5 -12 -10 -18 -10
-7 0 -6 4 3 10 19 12 23 12 15 0z m-49 -29 c2 -6 1 -8 -2 -3 -2 4 -23 7 -46 6
-26 -1 -36 1 -27 7 19 11 73 5 75 -10z m-86 -26 c-7 -9 -15 -13 -19 -10 -3 3
1 10 9 15 21 14 24 12 10 -5z m50 0 c0 -2 -7 -5 -15 -9 -9 -3 -15 0 -15 9 0 9
6 12 15 9 8 -4 15 -7 15 -9z m46 -10 c-11 -8 -25 -15 -30 -15 -6 1 0 7 14 15
32 19 40 18 16 0z m-92 -16 c-4 -8 1 -9 17 -5 21 6 22 5 6 -4 -10 -7 -26 -9
-35 -5 -14 5 -14 7 -2 15 20 13 23 12 14 -1z m66 -19 c-8 -5 -19 -10 -25 -10
-5 0 -3 5 5 10 8 5 20 10 25 10 6 0 3 -5 -5 -10z m-91 -13 c-2 -1 -13 -9 -24
-17 -19 -14 -19 -14 -6 3 7 9 18 17 24 17 6 0 8 -1 6 -3z m81 -16 c0 -5 -10
-11 -22 -14 -22 -6 -22 -6 -4 8 23 17 26 18 26 6z m-100 -31 c0 -5 -2 -10 -4
-10 -3 0 -8 5 -11 10 -3 6 -1 10 4 10 6 0 11 -4 11 -10z m57 -25 c-9 -19 -13
-21 -15 -9 -3 13 12 33 25 34 0 0 -4 -11 -10 -25z m-42 -5 c-3 -5 -12 -10 -18
-10 -7 0 -6 4 3 10 19 12 23 12 15 0z"/>
<path d="M2985 9550 c-4 -11 -4 -44 -1 -73 11 -94 22 -2674 12 -2684 -3 -3 -2
-13 2 -22 4 -9 7 -29 6 -46 -5 -69 -4 -837 1 -845 3 -5 2 -11 -3 -14 -6 -4 -8
-61 -2 -61 1 0 3 -106 5 -235 2 -149 -1 -240 -7 -247 -7 -9 -7 -13 3 -13 10 0
10 -3 2 -11 -9 -9 -9 -16 0 -29 7 -13 8 -22 0 -32 -6 -8 -9 -84 -7 -208 2
-107 4 -454 3 -770 0 -316 0 -682 0 -812 1 -152 -3 -238 -9 -238 -6 0 -10 -5
-10 -11 0 -5 5 -7 10 -4 6 3 10 -1 10 -10 0 -9 -4 -13 -10 -10 -5 3 -10 -1
-10 -9 0 -9 6 -16 13 -16 8 0 7 -4 -3 -10 -12 -8 -13 -13 -2 -30 7 -12 8 -20
2 -20 -5 0 -10 -7 -10 -16 0 -8 5 -12 10 -9 6 4 10 -6 9 -22 0 -25 -1 -26 -9
-8 -6 14 -9 2 -9 -42 -1 -36 3 -63 9 -63 6 0 10 -5 10 -11 0 -5 -4 -8 -9 -5
-5 4 -9 -29 -10 -75 -1 -50 3 -78 9 -74 6 4 10 -5 10 -20 0 -15 -4 -24 -10
-20 -9 5 -16 -137 -12 -240 3 -83 4 -1102 1 -1115 -3 -12 9 -15 66 -15 50 0
70 4 69 13 -1 6 -3 47 -4 90 l-4 77 -6 -80 c-5 -69 -6 -61 -7 55 0 96 2 119 7
80 4 -30 7 137 7 372 0 309 -3 428 -11 428 -8 0 -8 2 0 8 15 9 14 212 -1 212
-5 0 -3 5 5 10 12 7 12 12 2 22 -6 6 -12 19 -11 27 0 11 3 10 9 -4 12 -28 13
1 1 43 -7 23 -6 32 2 32 9 0 8 3 -1 8 -13 9 -12 38 1 60 5 7 4 12 -2 12 -15 0
-14 27 2 33 9 4 9 6 0 6 -7 1 -13 6 -13 12 0 5 5 7 10 4 6 -3 10 -1 10 4 0 6
-4 11 -10 11 -6 0 -7 219 -3 606 5 509 3 608 -8 615 -10 6 -11 9 -1 9 9 0 12
374 12 1845 0 1215 -4 1845 -10 1845 -6 0 -10 7 -10 16 0 9 5 12 11 8 8 -5 10
51 8 207 -2 118 -6 216 -9 219 -10 10 0 1241 10 1235 6 -3 10 5 10 20 0 17 -4
24 -11 19 -8 -4 -9 0 -4 15 6 20 3 21 -49 21 -46 0 -56 -3 -61 -20z m102
-2452 c-3 -8 -6 -5 -6 6 -1 11 2 17 5 13 3 -3 4 -12 1 -19z m-90 -4130 c-3 -8
-6 -5 -6 6 -1 11 2 17 5 13 3 -3 4 -12 1 -19z m13 -128 c0 -5 -2 -10 -4 -10
-3 0 -8 5 -11 10 -3 6 -1 10 4 10 6 0 11 -4 11 -10z"/>
<path d="M11573 8860 c-6 -1600 -5 -3369 2 -3379 3 -6 11 -9 16 -6 5 4 9 -3 9
-14 0 -14 -5 -19 -15 -15 -13 5 -15 -32 -17 -297 -3 -301 -2 -495 2 -514 6
-33 -3 -3196 -9 -3180 -7 16 -9 12 -13 -20 -3 -23 0 -43 6 -48 6 -4 38 -6 71
-5 48 2 59 6 55 18 -2 8 -6 339 -7 735 -1 396 -4 1103 -7 1570 -4 468 -6 940
-6 1050 1 265 1 443 0 538 0 43 2 83 6 89 5 7 2 8 -6 3 -10 -6 -11 -4 -5 11
13 33 5 2717 -8 2726 -9 6 -9 8 1 8 9 0 12 46 14 193 1 140 3 172 8 117 4 -41
7 182 8 497 1 434 -2 574 -11 581 -7 5 -30 13 -52 16 l-40 7 -2 -681z m94 273
c-2 -27 -3 -5 -3 47 0 52 1 74 3 48 2 -27 2 -69 0 -95z m0 -85 c-3 -7 -5 -2
-5 12 0 14 2 19 5 13 2 -7 2 -19 0 -25z m0 -400 c-1 -73 -3 -16 -3 127 0 143
2 203 3 133 2 -70 2 -187 0 -260z m-30 -2865 c-3 -10 -5 -4 -5 12 0 17 2 24 5
18 2 -7 2 -21 0 -30z"/>
<path d="M11552 9485 c0 -16 2 -22 5 -12 2 9 2 23 0 30 -3 6 -5 -1 -5 -18z"/>
<path d="M4772 9448 c-6 -6 -12 -16 -12 -22 0 -6 5 -5 12 2 8 8 17 8 30 1 17
-9 19 -8 16 8 -4 22 -29 28 -46 11z"/>
<path d="M9806 9414 c-9 -24 -8 -25 14 -12 23 15 26 28 6 28 -8 0 -17 -7 -20
-16z"/>
<path d="M9860 9415 c0 -7 7 -12 15 -11 24 4 27 13 5 19 -13 3 -20 0 -20 -8z"/>
<path d="M4760 9401 c0 -18 44 -41 67 -35 19 5 20 8 8 20 -7 8 -21 11 -29 8
-9 -3 -23 -1 -31 6 -10 8 -15 9 -15 1z"/>
<path d="M9897 9387 c-4 -12 -15 -17 -33 -15 -15 2 -29 -3 -31 -9 -7 -18 52
-17 67 2 6 8 10 20 8 27 -3 8 -7 6 -11 -5z"/>
<path d="M7525 9263 c-117 -42 -187 -139 -193 -268 -7 -126 55 -232 167 -287
66 -33 207 -33 269 0 41 22 42 24 42 73 l0 50 -31 -22 c-68 -48 -166 -61 -234
-30 -136 61 -168 250 -61 357 74 75 201 85 288 23 14 -11 29 -19 32 -19 3 0 6
21 6 46 0 44 -1 46 -47 66 -66 29 -173 34 -238 11z"/>
<path d="M8516 9270 c-61 -19 -96 -73 -96 -149 0 -66 34 -105 140 -160 44 -23
86 -52 95 -64 20 -29 19 -80 -2 -106 -39 -47 -140 -35 -169 20 l-14 29 -35
-17 c-42 -20 -40 -40 7 -90 54 -57 172 -68 246 -23 50 31 72 75 72 147 0 78
-21 106 -122 158 -96 49 -128 80 -128 120 0 66 91 96 143 47 25 -23 25 -23 61
-5 35 18 36 19 20 42 -35 49 -140 74 -218 51z"/>
<path d="M5839 9253 c-1 -10 -2 -139 -3 -287 l-1 -268 132 4 c114 3 136 6 160
24 51 39 68 71 68 133 0 68 -19 102 -72 130 -34 17 -35 19 -15 25 87 28 81
190 -9 238 -27 14 -56 18 -146 18 -100 0 -113 -2 -114 -17z m227 -78 c8 -10
14 -38 14 -60 0 -58 -24 -78 -100 -83 l-60 -4 0 87 0 87 66 -4 c50 -3 70 -9
80 -23z m14 -240 c34 -35 34 -95 -1 -130 -20 -20 -39 -27 -92 -32 l-67 -6 0
95 c0 52 3 98 8 102 4 5 34 5 67 2 45 -5 66 -12 85 -31z"/>
<path d="M6300 8985 l0 -285 150 0 150 0 0 40 0 40 -105 0 -105 0 0 245 0 245
-45 0 -45 0 0 -285z"/>
<path d="M6690 8985 l0 -285 243 -1 c133 0 257 -2 275 -5 l32 -4 0 290 0 290
-275 0 -275 0 0 -285z m478 -2 l-3 -208 -160 -3 c-88 -2 -179 0 -202 3 l-43 6
0 205 0 204 205 0 205 0 -2 -207z"/>
<path d="M7930 8985 l0 -285 29 0 c16 0 36 -3 45 -6 13 -5 16 13 18 145 l3
150 110 -144 110 -145 58 0 59 0 -53 68 c-29 37 -79 99 -110 139 -95 118 -98
94 24 232 59 66 107 123 107 126 0 3 -22 5 -49 5 l-50 0 -103 -122 -103 -122
-3 122 -3 122 -44 0 -45 0 0 -285z"/>
<path d="M11553 9165 c0 -27 2 -38 4 -22 2 15 2 37 0 50 -2 12 -4 0 -4 -28z"/>
<path d="M11552 9080 c0 -19 2 -27 5 -17 2 9 2 25 0 35 -3 9 -5 1 -5 -18z"/>
<path d="M3114 8860 c0 -107 2 -151 3 -97 2 53 2 141 0 195 -1 53 -3 9 -3 -98z"/>
<path d="M11554 8945 c0 -49 1 -71 3 -48 2 23 2 64 0 90 -2 26 -3 8 -3 -42z"/>
<path d="M11552 8830 c0 -14 2 -19 5 -12 2 6 2 18 0 25 -3 6 -5 1 -5 -13z"/>
<path d="M3986 8774 c-21 -20 -21 -41 -1 -24 12 10 20 9 40 -4 21 -14 25 -14
25 -2 0 8 -8 17 -17 19 -14 4 -13 5 4 6 12 0 29 -8 37 -20 8 -12 19 -18 25
-14 19 11 12 21 -24 38 -44 21 -69 21 -89 1z"/>
<path d="M10548 8737 c-9 -17 -8 -19 8 -13 10 4 21 1 26 -6 6 -10 8 -8 8 5 0
10 10 22 23 27 18 7 16 8 -16 8 -27 -1 -41 -7 -49 -21z"/>
<path d="M10658 8744 c24 -17 39 -14 27 5 -3 6 -16 11 -28 11 l-21 0 22 -16z"/>
<path d="M11552 8730 c0 -14 2 -19 5 -12 2 6 2 18 0 25 -3 6 -5 1 -5 -13z"/>
<path d="M10620 8731 c0 -6 5 -11 10 -11 6 0 10 -7 10 -15 0 -8 4 -15 9 -15
16 0 6 45 -11 48 -10 2 -18 -1 -18 -7z"/>
<path d="M4017 8704 c6 -17 -18 -19 -35 -2 -8 8 -12 9 -12 1 0 -6 12 -21 27
-33 20 -16 36 -20 57 -16 35 7 66 33 66 55 0 10 -5 8 -13 -8 -12 -24 -33 -26
-30 -3 0 7 -1 11 -4 9 -2 -3 -17 -1 -33 3 -23 7 -28 5 -23 -6z"/>
<path d="M10679 8693 c-8 -11 -20 -23 -26 -27 -14 -8 -56 11 -49 23 3 4 -1 8
-9 8 -8 0 -12 -4 -9 -9 3 -4 -2 -11 -10 -14 -20 -8 -11 -23 20 -34 32 -12 68
2 90 35 19 30 13 46 -7 18z"/>
<path d="M3114 8245 c0 -154 2 -216 3 -137 2 79 2 205 0 280 -1 75 -3 11 -3
-143z"/>
<path d="M4642 8420 c-124 -19 -249 -117 -312 -245 l-35 -70 0 -2145 c0 -1180
2 -1769 5 -1310 l5 835 27 80 c28 82 63 169 213 530 199 480 249 653 280 963
8 79 17 148 21 153 7 12 -23 11 -46 -1 -15 -8 -26 -4 -53 20 -34 30 -57 38
-57 21 0 -5 7 -14 15 -21 8 -7 15 -22 15 -34 0 -12 5 -27 11 -33 6 -6 14 -51
16 -100 10 -163 -40 -374 -157 -669 -74 -185 -280 -676 -287 -684 -8 -9 -1
590 8 627 8 34 18 132 35 343 8 98 10 116 18 128 4 6 8 26 10 44 4 39 9 61 17
68 17 16 49 95 50 127 2 63 7 70 49 77 39 6 52 20 28 29 -7 2 12 2 43 -1 60
-5 62 -3 73 41 6 25 4 27 -24 27 -52 0 -70 16 -70 61 0 32 4 42 19 46 17 4 19
20 23 216 4 135 2 217 -5 225 -14 18 -2 25 41 26 34 1 37 3 40 33 2 17 9 33
15 35 7 2 73 2 147 0 l136 -3 24 -47 c34 -63 50 -66 50 -8 0 44 -1 46 -30 46
-35 0 -41 24 -12 46 27 21 42 16 42 -14 0 -30 35 -62 43 -39 3 9 52 12 185 12
l182 0 0 -27 c0 -37 13 -43 105 -43 l80 0 3 -1072 2 -1072 -37 -3 -38 -3 -5
-270 c-3 -167 -1 -277 5 -287 16 -28 -9 -42 -83 -45 -98 -4 -163 -3 -173 3
-14 8 -11 -10 5 -32 14 -18 30 -19 583 -16 312 2 573 7 578 12 6 5 28 5 50 0
22 -5 68 -10 102 -10 55 0 61 2 56 19 -4 17 -19 19 -264 19 -153 1 -261 -3
-264 -9 -4 -5 -13 -5 -25 1 -13 7 -21 7 -25 0 -4 -7 -13 -6 -27 1 -16 9 -23 8
-29 -2 -6 -10 -9 -11 -9 -1 0 8 -19 12 -60 12 -47 0 -60 -3 -60 -15 0 -8 -5
-15 -11 -15 -6 0 -8 7 -5 16 5 12 2 15 -13 11 -10 -2 -25 -1 -32 4 -10 6 -4 9
18 9 l32 0 1 294 c1 319 3 306 -55 306 -16 0 -26 8 -31 22 -3 12 -4 569 0
1237 3 669 2 1243 -2 1276 l-8 60 -8 -52 c-4 -29 -14 -57 -22 -64 -8 -6 -14
-16 -14 -21 0 -6 6 -6 14 1 12 10 14 -128 16 -976 3 -1342 4 -1477 12 -1483 4
-3 8 -136 8 -295 1 -185 6 -297 13 -310 9 -17 8 -18 -5 -7 -18 15 -48 6 -48
-15 0 -8 -4 -12 -10 -8 -5 3 -7 12 -3 20 3 11 1 13 -10 10 -19 -8 -30 21 -16
47 12 23 17 499 5 536 -6 16 -3 22 8 22 14 0 16 98 16 988 0 641 -3 991 -10
998 -5 5 -13 38 -16 72 -6 51 -4 66 10 81 16 17 16 22 2 54 -15 37 -25 204
-13 224 4 6 0 28 -9 49 -12 29 -13 43 -5 56 6 10 11 68 12 135 0 65 3 113 5
107 3 -6 16 -9 29 -6 23 4 25 1 25 -32 0 -20 5 -36 10 -36 6 0 10 6 9 13 -1 6
-1 22 0 35 l1 22 1339 0 c1061 0 1341 -3 1348 -12 4 -7 6 -87 4 -178 -2 -91
-4 -250 -5 -355 -1 -248 15 -1489 20 -1494 2 -2 4 65 4 150 0 85 3 192 8 239
l7 85 6 -80 c4 -44 6 307 5 780 l-1 860 32 3 31 3 6 -73 c3 -40 6 -98 5 -128
-1 -30 3 -145 10 -255 6 -110 14 -671 18 -1248 5 -931 4 -1049 -9 -1065 -22
-24 -32 -530 -11 -557 8 -13 30 -20 66 -23 50 -4 55 -2 60 19 4 13 7 144 7
290 0 290 2 279 -56 279 -13 0 -24 6 -25 13 -4 67 4 1798 10 2077 5 231 4 378
-2 400 -9 33 -3 247 7 258 7 6 226 7 817 5 483 -3 516 -4 516 -20 -1 -78 2
-83 36 -83 35 0 57 15 57 37 0 10 -5 11 -19 3 -24 -12 -37 3 -16 20 26 22 113
-25 160 -86 l25 -33 -62 -50 c-35 -28 -82 -69 -105 -91 -24 -23 -48 -40 -55
-38 -8 3 -13 24 -13 56 0 37 -3 52 -13 52 -11 0 -13 -15 -11 -62 2 -36 -2 -72
-9 -85 -18 -32 -15 -63 6 -64 9 0 90 -1 179 -2 89 -1 163 -5 165 -7 2 -3 2
-31 0 -62 l-4 -58 -280 0 c-270 0 -282 -1 -319 -22 -40 -22 -47 -32 -29 -43 6
-4 9 -28 8 -53 -1 -26 -1 -122 0 -213 2 -159 3 -167 23 -172 18 -5 20 -12 17
-59 l-3 -53 -46 -3 c-44 -3 -45 -4 -41 -31 2 -16 -1 -32 -9 -36 -17 -11 -62
42 -54 64 12 30 10 36 -9 36 -27 0 -36 -35 -20 -80 9 -27 11 -49 5 -66 -12
-35 -4 -44 54 -58 27 -7 55 -17 62 -22 7 -7 18 -6 31 2 28 17 573 -1 596 -20
14 -12 16 -55 16 -336 0 -269 -2 -325 -14 -335 -8 -6 -49 -14 -90 -17 l-75 -6
3 -36 c3 -28 11 -40 40 -58 38 -25 46 -47 20 -57 -25 -10 -102 -7 -109 4 -6
10 -85 10 -85 0 0 -3 -14 -11 -31 -19 -27 -12 -32 -11 -51 5 -21 19 -21 19 -9
-3 6 -13 21 -23 31 -23 11 0 25 -9 32 -20 9 -13 24 -20 45 -20 22 0 36 -6 43
-19 14 -27 10 -952 -5 -943 -5 3 -39 28 -73 54 -106 81 -197 118 -292 118 -65
0 -108 -14 -261 -85 -74 -35 -170 -74 -212 -87 -42 -13 -77 -26 -77 -30 0 -3
21 -8 48 -11 26 -2 86 -10 135 -17 84 -13 87 -15 86 -39 0 -14 -3 -21 -5 -14
-3 7 -13 9 -21 6 -12 -5 -15 -2 -10 10 3 9 2 17 -2 17 -5 0 -11 -6 -14 -12 -3
-10 -8 -10 -21 1 -13 11 -22 12 -42 2 -14 -6 -23 -7 -19 -2 3 6 -57 10 -155
10 -116 0 -160 -4 -160 -12 0 -9 -3 -8 -8 1 -12 18 -312 14 -312 -4 0 -7 -8
-15 -17 -17 -10 -3 31 -5 91 -6 99 -1 108 1 90 14 -25 19 -6 19 32 1 23 -12
91 -15 324 -17 289 -2 296 -2 340 21 193 99 290 79 463 -95 l94 -94 12 -378
c7 -208 18 -475 26 -593 10 -147 12 -248 6 -320 -5 -58 -5 -112 -1 -120 15
-30 19 -234 7 -305 l-12 -69 -65 -24 c-52 -18 -57 -22 -27 -18 54 7 138 48
185 90 81 73 140 199 142 303 3 159 -11 4656 -15 4692 -7 64 -61 164 -115 215
-51 48 -122 88 -185 104 -27 7 -812 13 -2380 16 -1287 4 -2484 8 -2660 10
-176 2 -344 1 -373 -4z m388 -287 c0 -15 2 -15 9 -4 13 20 130 19 142 0 5 -8
9 -51 9 -97 0 -53 4 -81 10 -77 6 3 10 4 10 1 0 -2 3 -11 6 -20 5 -13 -5 -16
-70 -15 -43 1 -74 5 -70 10 3 5 -3 9 -13 10 -80 3 -98 2 -96 -7 1 -9 -136 -7
-146 2 -9 9 -16 71 -13 130 3 49 7 64 17 60 7 -2 16 -2 20 2 9 9 125 10 125 1
0 -4 9 -7 20 -6 11 1 20 7 20 14 0 7 5 13 10 13 6 0 10 -8 10 -17z m-671 -54
c31 -30 31 -32 31 -135 l0 -105 -42 3 -43 3 -3 61 c-3 56 -1 62 19 67 18 5 21
11 16 49 -2 24 -8 53 -12 66 -10 30 -2 28 34 -9z m5878 -16 c-9 -9 -20 -14
-24 -10 -3 4 2 14 13 21 25 19 33 10 11 -11z m-5020 -15 c-3 -8 -6 -5 -6 6 -1
11 2 17 5 13 3 -3 4 -12 1 -19z m4993 -12 c0 -1 -5 -17 -11 -35 -8 -22 -15
-29 -23 -22 -6 5 -22 11 -36 13 l-25 3 25 23 c19 18 70 32 70 18z m-4544 -139
c1 -9 -4 -21 -11 -27 -18 -15 -55 4 -55 28 1 14 4 13 21 -7 11 -13 23 -20 27
-16 4 4 2 10 -5 12 -14 5 -5 35 10 30 6 -2 11 -11 13 -20z m-173 -2 c4 -8 2
-17 -3 -20 -6 -4 -10 3 -10 14 0 25 6 27 13 6z m47 6 c0 -22 -13 -41 -28 -41
-13 0 -12 3 4 15 12 9 14 14 6 15 -7 0 -10 5 -7 10 8 13 25 13 25 1z m-1065
-21 c-3 -5 -14 -10 -23 -9 -14 0 -13 2 3 9 27 11 27 11 20 0z m5292 -132 c-3
-8 -6 -5 -6 6 -1 11 2 17 5 13 3 -3 4 -12 1 -19z m543 -128 c38 -6 41 -9 23
-15 -28 -9 -29 -22 -3 -30 15 -5 20 -15 20 -41 l0 -34 -201 0 c-179 0 -200 -2
-195 -16 3 -9 6 -21 6 -29 0 -7 9 -15 19 -18 16 -4 19 -10 12 -33 -6 -24 -13
-29 -37 -29 l-29 0 1 112 c1 62 4 120 8 128 4 13 32 15 168 14 90 0 183 -4
208 -9z m-310 -150 c0 -5 -4 -10 -10 -10 -5 0 -10 5 -10 10 0 6 5 10 10 10 6
0 10 -4 10 -10z m135 1 c3 -6 -3 -9 -14 -8 -11 0 -17 5 -15 9 7 11 22 10 29
-1z m105 -1 c0 -5 -3 -10 -7 -11 -5 0 -16 -2 -25 -4 -10 -2 -18 3 -18 11 0 8
10 14 25 14 14 0 25 -4 25 -10z m-180 -66 c0 -31 -3 -35 -22 -32 -17 2 -22 9
-21 31 1 38 1 37 23 37 16 0 20 -7 20 -36z m64 1 c0 -23 -5 -31 -21 -33 -16
-2 -22 3 -25 28 -5 35 -1 42 26 38 15 -2 20 -11 20 -33z m64 -3 c3 -28 0 -32
-21 -32 -22 0 -24 4 -21 33 1 17 3 33 3 35 1 2 9 2 19 0 11 -2 18 -14 20 -36z
m66 3 c0 -23 -5 -31 -21 -33 -16 -2 -22 3 -25 27 -4 31 4 41 32 38 9 -1 14
-13 14 -32z m56 -5 c0 -19 -5 -30 -14 -30 -8 0 -16 13 -18 30 -4 24 -1 30 14
30 13 0 18 -8 18 -30z m-7 -307 c-7 -2 -21 -2 -30 0 -10 3 -4 5 12 5 17 0 24
-2 18 -5z m-4613 -754 c0 -433 -3 -659 -10 -659 -7 0 -10 229 -10 666 0 441 3
663 10 659 7 -4 10 -237 10 -666z m2982 -912 c-2 -100 -5 -184 -8 -186 -12
-13 -17 24 -22 183 -5 181 -1 219 21 197 9 -9 11 -61 9 -194z m-3028 -353 c24
-9 19 -24 -9 -24 -18 0 -23 4 -19 15 7 17 7 17 28 9z m60 -50 c8 -21 8 -24 -3
-24 -5 0 -11 9 -14 20 -6 24 8 27 17 4z m3551 -14 c3 -6 -1 -7 -9 -4 -18 7
-21 14 -7 14 6 0 13 -4 16 -10z m1095 -1645 c0 -14 -4 -25 -9 -25 -4 0 -6 11
-3 25 2 14 6 25 8 25 2 0 4 -11 4 -25z"/>
<path d="M4868 8079 c-21 -12 -23 -40 -6 -57 34 -34 79 7 52 46 -17 25 -22 26
-46 11z"/>
<path d="M5110 8065 c-17 -21 -2 -50 26 -50 14 0 19 7 19 30 0 34 -24 45 -45
20z"/>
<path d="M9990 7590 c0 -5 5 -10 10 -10 6 0 10 5 10 10 0 6 -4 10 -10 10 -5 0
-10 -4 -10 -10z"/>
<path d="M10120 7588 c0 -4 9 -8 20 -8 11 0 20 4 20 9 0 6 -9 9 -20 8 -11 -1
-20 -5 -20 -9z"/>
<path d="M10165 7539 c-4 -5 14 -9 41 -9 55 0 55 5 2 13 -21 3 -40 1 -43 -4z"/>
<path d="M11552 8350 c0 -14 2 -19 5 -12 2 6 2 18 0 25 -3 6 -5 1 -5 -13z"/>
<path d="M11672 8310 c0 -19 2 -27 5 -17 2 9 2 25 0 35 -3 9 -5 1 -5 -18z"/>
<path d="M11553 8215 c0 -38 2 -53 4 -32 2 20 2 52 0 70 -2 17 -4 1 -4 -38z"/>
<path d="M7147 8254 c-4 -4 -7 -20 -7 -36 0 -15 -4 -28 -9 -28 -5 0 -11 -15
-14 -32 -4 -18 -7 -550 -9 -1183 -3 -1143 -8 -1484 -23 -1538 -5 -18 -3 -37 5
-52 9 -16 10 -46 5 -101 -16 -190 -8 -244 36 -244 14 0 19 7 20 28 2 23 2 24
6 5 2 -13 7 -23 11 -23 4 0 17 -3 29 -6 19 -5 23 -3 22 17 -1 13 2 542 6 1174
12 1765 12 1942 -2 1956 -7 7 -13 24 -13 37 0 13 -4 21 -10 17 -6 -4 -8 -16
-4 -27 4 -13 1 -24 -7 -29 -17 -11 -32 -12 -25 -1 7 12 -8 74 -17 66z m27
-109 c-4 -8 -10 -12 -15 -9 -11 6 -2 24 11 24 5 0 7 -7 4 -15z m6 -29 c0 -3
-4 -8 -10 -11 -5 -3 -10 -1 -10 4 0 6 5 11 10 11 6 0 10 -2 10 -4z m0 -30 c0
-3 -4 -8 -10 -11 -5 -3 -10 -1 -10 4 0 6 5 11 10 11 6 0 10 -2 10 -4z m20
-160 c0 -3 -4 -8 -10 -11 -5 -3 -10 -1 -10 4 0 6 5 11 10 11 6 0 10 -2 10 -4z
m-30 -696 c0 -5 -2 -10 -4 -10 -3 0 -8 5 -11 10 -3 6 -1 10 4 10 6 0 11 -4 11
-10z m0 -370 c0 -5 -2 -10 -4 -10 -3 0 -8 5 -11 10 -3 6 -1 10 4 10 6 0 11 -4
11 -10z m0 -30 c0 -5 -4 -10 -10 -10 -5 0 -10 5 -10 10 0 6 5 10 10 10 6 0 10
-4 10 -10z m0 -100 c0 -5 -2 -10 -4 -10 -3 0 -8 5 -11 10 -3 6 -1 10 4 10 6 0
11 -4 11 -10z m0 -30 c0 -5 -4 -10 -10 -10 -5 0 -10 5 -10 10 0 6 5 10 10 10
6 0 10 -4 10 -10z m0 -100 c0 -5 -4 -10 -10 -10 -5 0 -10 5 -10 10 0 6 5 10
10 10 6 0 10 -4 10 -10z m-8 -42 c-7 -7 -12 -8 -12 -2 0 14 12 26 19 19 2 -3
-1 -11 -7 -17z m8 -22 c0 -3 -4 -8 -10 -11 -5 -3 -10 -1 -10 4 0 6 5 11 10 11
6 0 10 -2 10 -4z m0 -66 c0 -5 -4 -10 -10 -10 -5 0 -10 5 -10 10 0 6 5 10 10
10 6 0 10 -4 10 -10z m30 -20 c0 -5 -5 -10 -11 -10 -5 0 -7 5 -4 10 3 6 8 10
11 10 2 0 4 -4 4 -10z m-30 -20 c0 -5 -4 -10 -10 -10 -5 0 -10 5 -10 10 0 6 5
10 10 10 6 0 10 -4 10 -10z m30 -50 c0 -5 -4 -10 -10 -10 -5 0 -10 5 -10 10 0
6 5 10 10 10 6 0 10 -4 10 -10z m-30 -50 c0 -5 -4 -10 -10 -10 -5 0 -10 5 -10
10 0 6 5 10 10 10 6 0 10 -4 10 -10z m0 -134 c0 -3 -4 -8 -10 -11 -5 -3 -10
-1 -10 4 0 6 5 11 10 11 6 0 10 -2 10 -4z m0 -36 c0 -5 -4 -10 -10 -10 -5 0
-10 5 -10 10 0 6 5 10 10 10 6 0 10 -4 10 -10z m0 -30 c0 -5 -4 -10 -10 -10
-5 0 -10 5 -10 10 0 6 5 10 10 10 6 0 10 -4 10 -10z m0 -70 c0 -5 -4 -10 -10
-10 -5 0 -10 5 -10 10 0 6 5 10 10 10 6 0 10 -4 10 -10z m0 -30 c0 -5 -4 -10
-10 -10 -5 0 -10 5 -10 10 0 6 5 10 10 10 6 0 10 -4 10 -10z m0 -34 c0 -3 -4
-8 -10 -11 -5 -3 -10 -1 -10 4 0 6 5 11 10 11 6 0 10 -2 10 -4z m0 -30 c0 -3
-4 -8 -10 -11 -5 -3 -10 -1 -10 4 0 6 5 11 10 11 6 0 10 -2 10 -4z m0 -40 c0
-3 -4 -8 -10 -11 -5 -3 -10 -1 -10 4 0 6 5 11 10 11 6 0 10 -2 10 -4z m30 -16
c0 -5 -5 -10 -11 -10 -5 0 -7 5 -4 10 3 6 8 10 11 10 2 0 4 -4 4 -10z m-30
-14 c0 -3 -4 -8 -10 -11 -5 -3 -10 -1 -10 4 0 6 5 11 10 11 6 0 10 -2 10 -4z
m-2 -122 c-1 -47 -5 -87 -10 -90 -4 -3 -8 38 -8 91 0 57 4 94 9 90 5 -3 9 -44
9 -91z m32 72 c0 -3 -4 -8 -10 -11 -5 -3 -10 -1 -10 4 0 6 5 11 10 11 6 0 10
-2 10 -4z m0 -670 c0 -3 -4 -8 -10 -11 -5 -3 -10 -1 -10 4 0 6 5 11 10 11 6 0
10 -2 10 -4z m-3 -102 c-3 -3 -12 -4 -19 -1 -8 3 -5 6 6 6 11 1 17 -2 13 -5z"/>
<path d="M11671 8234 c0 -11 3 -14 6 -6 3 7 2 16 -1 19 -3 4 -6 -2 -5 -13z"/>
<path d="M10112 8181 c2 -7 7 -12 11 -12 12 1 9 15 -3 20 -7 2 -11 -2 -8 -8z"/>
<path d="M11551 8124 c0 -11 3 -14 6 -6 3 7 2 16 -1 19 -3 4 -6 -2 -5 -13z"/>
<path d="M2973 8070 c0 -30 2 -43 4 -27 2 15 2 39 0 55 -2 15 -4 2 -4 -28z"/>
<path d="M9721 8056 c-12 -14 -10 -63 3 -84 10 -17 61 -15 76 3 11 13 10 18
-6 29 -15 12 -16 16 -5 29 7 9 10 21 6 27 -9 15 -61 12 -74 -4z"/>
<path d="M2975 6750 c0 -696 1 -980 2 -632 2 347 2 917 0 1265 -1 347 -2 63
-2 -633z"/>
<path d="M3112 7890 c0 -14 2 -19 5 -12 2 6 2 18 0 25 -3 6 -5 1 -5 -13z"/>
<path d="M8590 7814 c0 -59 24 -55 28 4 2 33 0 42 -12 42 -12 0 -16 -11 -16
-46z"/>
<path d="M5045 7809 c-4 -6 -5 -12 -2 -15 2 -3 7 2 10 11 7 17 1 20 -8 4z"/>
<path d="M8600 7674 c-11 -29 -11 -877 0 -1069 4 -74 8 97 9 445 2 311 4 584
5 607 1 50 -1 52 -14 17z"/>
<path d="M9741 6953 c-12 -8 -21 -19 -21 -25 0 -6 8 -4 19 6 14 13 24 14 44 7
21 -8 25 -7 21 3 -8 21 -40 26 -63 9z"/>
<path d="M10271 6956 c-10 -12 -7 -15 21 -18 25 -2 33 -8 33 -23 0 -15 -7 -20
-25 -21 -38 0 -35 -19 3 -19 29 0 32 3 35 33 5 53 -38 83 -67 48z"/>
<path d="M9630 6918 c-26 -28 -28 -86 -2 -84 14 1 18 -11 23 -74 5 -65 6 -58
7 53 1 70 0 127 -3 127 -2 0 -13 -10 -25 -22z"/>
<path d="M9740 6880 c0 -5 7 -10 16 -10 8 0 12 5 9 10 -3 6 -10 10 -16 10 -5
0 -9 -4 -9 -10z"/>
<path d="M9998 6724 c-48 -25 -51 -94 -6 -127 26 -19 27 -19 65 -1 24 12 37
25 34 34 -2 8 -4 31 -3 51 0 29 -4 39 -24 48 -31 14 -33 14 -66 -5z m29 -70
c-3 -3 -12 -4 -19 -1 -8 3 -5 6 6 6 11 1 17 -2 13 -5z"/>
<path d="M9760 6433 c8 -3 24 -10 35 -16 18 -9 19 -9 6 6 -7 10 -23 17 -35 16
-14 0 -16 -2 -6 -6z"/>
<path d="M10264 6429 c-5 -9 0 -10 18 -6 17 5 30 2 38 -8 20 -24 4 -45 -32
-45 -30 -1 -32 -2 -15 -15 12 -9 27 -11 40 -6 17 7 22 17 22 47 0 36 -2 39
-32 42 -17 2 -34 -2 -39 -9z"/>
<path d="M9628 6419 c-29 -16 -21 -55 18 -99 28 -30 44 -40 67 -40 l31 0 -42
43 c-32 32 -42 51 -42 75 0 34 -5 37 -32 21z"/>
<path d="M8601 6404 c0 -11 3 -14 6 -6 3 7 2 16 -1 19 -3 4 -6 -2 -5 -13z"/>
<path d="M9740 6360 c0 -5 7 -10 16 -10 8 0 12 5 9 10 -3 6 -10 10 -16 10 -5
0 -9 -4 -9 -10z"/>
<path d="M8603 6235 c0 -33 2 -45 4 -27 2 18 2 45 0 60 -2 15 -4 0 -4 -33z"/>
<path d="M8511 6254 c0 -11 3 -14 6 -6 3 7 2 16 -1 19 -3 4 -6 -2 -5 -13z"/>
<path d="M8512 6200 c0 -19 2 -27 5 -17 2 9 2 25 0 35 -3 9 -5 1 -5 -18z"/>
<path d="M9978 6223 c29 -2 74 -2 100 0 26 2 2 3 -53 3 -55 0 -76 -1 -47 -3z"/>
<path d="M8602 6140 c0 -19 2 -27 5 -17 2 9 2 25 0 35 -3 9 -5 1 -5 -18z"/>
<path d="M8604 5830 c0 -107 2 -151 3 -97 2 53 2 141 0 195 -1 53 -3 9 -3 -98z"/>
<path d="M9667 5943 c-7 -34 13 -58 41 -49 25 8 32 25 21 54 -13 34 -55 30
-62 -5z"/>
<path d="M8512 5920 c0 -14 2 -19 5 -12 2 6 2 18 0 25 -3 6 -5 1 -5 -13z"/>
<path d="M8512 5788 c-3 -133 -10 -156 -54 -160 l-33 -3 0 -280 0 -280 45 -6
c25 -4 48 -4 52 0 9 7 12 569 4 591 -3 8 -7 67 -9 130 l-3 115 -2 -107z"/>
<path d="M6870 5483 c-39 -14 -53 -72 -25 -109 8 -11 15 -41 15 -70 0 -28 2
-53 5 -56 3 -2 18 -3 35 0 29 4 30 6 30 56 0 30 6 60 15 72 15 20 19 62 7 80
-8 13 -47 34 -59 33 -4 0 -15 -3 -23 -6z"/>
<path d="M2975 4650 c0 -448 1 -632 2 -408 2 225 2 591 0 815 -1 225 -2 41 -2
-407z"/>
<path d="M6840 5205 c-25 -65 -6 -115 44 -115 39 0 68 34 70 84 1 27 -3 31
-34 37 -19 3 -43 10 -52 14 -13 5 -20 0 -28 -20z m75 -65 c-3 -5 -10 -10 -16
-10 -5 0 -9 5 -9 10 0 6 7 10 16 10 8 0 12 -4 9 -10z"/>
<path d="M5213 5071 c-85 -8 -87 -18 -3 -17 46 1 71 5 75 14 2 6 1 11 -3 10
-4 0 -35 -4 -69 -7z"/>
<path d="M6862 5055 c-16 -19 -2 -19 34 0 29 15 29 15 4 15 -14 -1 -31 -7 -38
-15z"/>
<path d="M5120 5021 c0 -11 73 -41 99 -41 11 0 27 3 36 6 13 5 14 8 3 15 -10
7 -10 9 0 9 6 0 12 5 12 10 0 6 -32 10 -75 10 -41 0 -75 -4 -75 -9z"/>
<path d="M6697 5023 c-30 -29 95 -37 506 -34 44 1 57 4 57 16 0 19 9 19 34 0
13 -10 43 -15 84 -15 55 0 63 2 60 18 -3 16 -30 17 -369 19 -202 1 -369 0
-372 -4z"/>
<path d="M7470 5019 c0 -11 75 -26 119 -23 62 3 78 24 21 26 -111 3 -140 3
-140 -3z"/>
<path d="M7730 5019 l-45 -5 29 -12 c17 -7 51 -11 80 -8 28 3 57 5 64 5 8 1
12 7 10 13 -5 14 -64 17 -138 7z"/>
<path d="M7890 5015 c0 -16 32 -25 98 -25 40 0 52 4 52 15 0 15 -7 17 -97 20
-37 2 -53 -1 -53 -10z"/>
<path d="M8092 5019 c-31 -11 22 -29 86 -29 55 0 60 2 55 20 -5 17 -13 19 -64
17 -33 -1 -67 -5 -77 -8z"/>
<path d="M8313 5016 c-40 -19 -25 -26 55 -26 71 0 78 2 79 20 1 17 -4 20 -34
20 -27 0 -34 -3 -29 -15 4 -10 -1 -15 -14 -15 -11 0 -20 7 -20 15 0 17 -6 17
-37 1z"/>
<path d="M8493 5015 c-3 -9 -4 -17 -2 -19 8 -8 129 -11 129 -3 1 35 -1 37 -36
37 -21 0 -33 -4 -29 -10 3 -5 1 -10 -4 -10 -6 0 -11 5 -11 10 0 16 -40 11 -47
-5z"/>
<path d="M8635 5020 c3 -5 8 -10 11 -10 2 0 4 5 4 10 0 6 -5 10 -11 10 -5 0
-7 -4 -4 -10z"/>
<path d="M8460 5010 c0 -5 5 -10 11 -10 5 0 7 5 4 10 -3 6 -8 10 -11 10 -2 0
-4 -4 -4 -10z"/>
<path d="M5100 4948 c0 -25 3 -29 10 -18 13 20 13 50 0 50 -5 0 -10 -15 -10
-32z"/>
<path d="M5139 4893 c-1 -16 -2 -42 -3 -60 -1 -17 -5 -35 -9 -39 -4 -4 -7 -16
-7 -26 0 -10 -4 -18 -10 -18 -5 0 -10 -4 -10 -8 0 -12 74 -1 83 12 5 8 9 7 16
-2 7 -11 48 -13 212 -8 112 3 234 6 270 6 64 0 66 1 62 24 -3 13 0 34 7 46 9
16 9 25 1 33 -6 6 -11 24 -11 39 l0 28 -88 0 c-54 0 -93 -5 -100 -12 -9 -9
-17 -9 -36 1 -31 17 -46 7 -46 -30 0 -16 -4 -29 -10 -29 -5 0 -10 16 -10 35
l0 35 -155 0 -155 0 -1 -27z m78 -19 c-3 -3 -12 -4 -19 -1 -8 3 -5 6 6 6 11 1
17 -2 13 -5z m3 -40 c0 -2 -7 -4 -15 -4 -8 0 -15 4 -15 10 0 5 7 7 15 4 8 -4
15 -8 15 -10z m325 -24 c-3 -5 -10 -10 -16 -10 -5 0 -9 5 -9 10 0 6 7 10 16
10 8 0 12 -4 9 -10z m-338 -36 c-3 -3 -12 -4 -19 -1 -8 3 -5 6 6 6 11 1 17 -2
13 -5z"/>
<path d="M5794 4896 c-3 -14 -3 -29 0 -34 3 -6 -1 -13 -9 -16 -12 -4 -13 -11
-7 -23 5 -10 9 -30 8 -45 -2 -28 -1 -28 61 -28 59 0 63 1 63 23 0 13 -5 28
-12 35 -9 9 -2 12 33 12 25 0 48 2 50 4 3 3 3 23 1 45 l-4 41 -38 -6 c-23 -4
-40 -2 -44 5 -4 6 -27 11 -51 11 -39 0 -45 -3 -51 -24z"/>
<path d="M7095 4909 c-4 -6 -19 -7 -36 -4 -27 6 -29 4 -30 -24 -1 -17 -2 -37
-3 -43 -1 -9 11 -12 33 -10 33 2 33 2 29 -38 l-4 -40 1122 0 c1063 0 1122 1
1119 18 -2 9 -4 20 -4 24 -1 3 -9 9 -18 11 -17 4 -17 5 0 6 27 2 20 21 -9 21
-19 0 -25 -4 -21 -15 5 -11 2 -12 -16 -4 -12 5 -62 18 -112 28 -86 18 -88 19
-50 25 22 4 69 13 105 21 40 8 69 10 74 4 15 -14 43 -11 49 5 3 8 3 17 0 20
-4 3 -337 5 -742 5 -405 -1 -700 -5 -656 -9 44 -4 94 -14 111 -23 17 -9 54
-19 82 -23 62 -8 60 -19 -5 -29 -26 -4 -61 -14 -78 -23 -25 -14 -86 -17 -395
-23 -201 -4 -377 -10 -391 -14 -21 -5 -26 -3 -24 12 2 31 16 44 43 41 28 -3
28 -3 31 59 1 22 2 23 204 26 l202 2 -223 3 c-147 1 -221 -1 -217 -8 3 -5 -1
-10 -9 -10 -9 0 -16 5 -16 10 0 13 -137 13 -145 -1z"/>
<path d="M9347 4914 c-3 -4 -2 -16 4 -27 8 -14 8 -18 0 -13 -15 10 -14 -3 3
-19 9 -9 17 -10 24 -3 6 6 12 6 16 -1 4 -6 1 -11 -7 -11 -8 0 -22 -10 -33 -22
-10 -12 -13 -18 -6 -14 8 5 12 -2 12 -23 0 -17 5 -31 11 -31 6 0 9 9 6 20 -3
13 0 20 9 20 8 0 14 -9 14 -20 0 -16 6 -20 33 -19 30 1 31 1 7 9 l-25 8 25 2
c25 1 25 1 3 10 -13 5 -23 12 -23 14 0 3 7 3 15 0 8 -4 15 -1 15 4 0 6 -8 13
-17 15 -17 4 -17 5 0 6 9 0 17 4 17 7 0 4 -8 13 -17 20 -17 13 -17 13 2 14 20
1 20 1 0 12 -19 11 -19 11 0 19 20 7 20 8 0 8 -17 1 -17 3 -5 11 11 7 2 10
-31 10 -25 0 -49 -3 -52 -6z m50 -10 c-3 -3 -12 -4 -19 -1 -8 3 -5 6 6 6 11 1
17 -2 13 -5z m3 -24 c0 -5 -4 -10 -10 -10 -5 0 -10 5 -10 10 0 6 5 10 10 10 6
0 10 -4 10 -10z m-3 -66 c-3 -3 -12 -4 -19 -1 -8 3 -5 6 6 6 11 1 17 -2 13 -5z"/>
<path d="M9270 4861 c0 -9 24 -21 41 -21 5 0 9 7 9 15 0 9 -9 15 -25 15 -14 0
-25 -4 -25 -9z"/>
<path d="M9335 4840 c3 -5 8 -10 11 -10 2 0 4 5 4 10 0 6 -5 10 -11 10 -5 0
-7 -4 -4 -10z"/>
<path d="M5006 4728 c-11 -42 -7 -78 9 -78 10 0 15 10 15 31 0 17 5 39 10 50
9 16 7 19 -8 19 -12 0 -22 -9 -26 -22z"/>
<path d="M5102 4610 c4 -25 1 -29 -21 -32 -20 -2 -27 -9 -29 -30 -4 -35 24
-39 38 -5 9 22 9 22 10 -3 l2 -25 8 25 8 25 2 -25 2 -25 8 25 c4 14 8 19 9 12
1 -10 4 -10 16 2 8 8 15 19 15 25 0 6 -7 11 -15 11 -8 0 -15 5 -15 10 0 6 4
10 9 10 5 0 11 7 15 15 4 12 -3 15 -30 15 -34 0 -36 -2 -32 -30z"/>
<path d="M5201 4619 c6 -12 7 -24 3 -28 -11 -7 -12 -81 -1 -81 4 0 8 12 8 28
l1 27 8 -30 8 -30 2 30 2 30 8 -30 7 -30 5 30 5 30 2 -27 c1 -26 4 -28 41 -28
40 0 46 5 52 45 2 15 -5 20 -35 26 -40 6 -54 15 -44 25 4 4 13 1 22 -6 13 -11
15 -9 15 14 0 14 -5 26 -11 26 -5 0 -7 -4 -4 -10 3 -5 1 -10 -4 -10 -6 0 -11
5 -11 10 0 6 -20 10 -45 10 -44 0 -45 -1 -34 -21z m106 -91 c-3 -7 -5 -2 -5
12 0 14 2 19 5 13 2 -7 2 -19 0 -25z"/>
<path d="M5433 4633 c9 -2 23 -2 30 0 6 3 -1 5 -18 5 -16 0 -22 -2 -12 -5z"/>
<path d="M5615 4628 c-2 -7 -5 -24 -7 -37 -2 -13 -10 -27 -18 -31 -8 -4 -25
-12 -37 -18 -29 -15 -33 -15 -33 3 0 14 -3 14 -24 0 -13 -9 -28 -15 -32 -14
-23 4 -34 -3 -34 -21 0 -11 -4 -20 -9 -20 -5 0 -15 -30 -22 -67 -7 -38 -14
-70 -14 -73 -12 -45 -15 -63 -19 -110 -6 -69 -16 -122 -27 -135 -4 -6 -7 -39
-5 -72 1 -34 -1 -60 -5 -57 -4 2 -7 -10 -6 -28 2 -39 -13 -159 -21 -173 -3 -5
-7 -16 -8 -25 -8 -57 -17 -98 -24 -115 -10 -22 -40 -134 -47 -175 -4 -21 1
-27 28 -37 l32 -12 -36 -33 c-26 -24 -42 -53 -61 -110 -14 -42 -26 -87 -26
-101 0 -13 -3 -27 -7 -31 -4 -4 -8 -17 -10 -29 -3 -19 5 -25 49 -40 29 -9 65
-19 80 -21 50 -8 368 -9 375 -2 5 4 9 365 9 802 1 775 1 794 -18 794 -10 0
-21 -6 -23 -12z"/>
<path d="M5686 4053 c-2 -324 -5 -595 -6 -603 -1 -8 -1 -35 -1 -60 1 -25 1
-103 -1 -175 -2 -115 0 -135 19 -175 12 -25 19 -48 17 -52 -3 -4 -214 -8 -470
-8 -256 0 -469 -2 -474 -5 -5 -3 -46 -1 -92 5 -195 24 -345 160 -378 342 l-9
53 3 -53 c4 -70 62 -187 117 -237 62 -56 170 -103 259 -113 41 -5 352 -6 690
-2 338 3 577 7 530 9 -47 2 -97 2 -113 1 l-27 -2 6 54 c3 30 7 403 8 831 l1
777 -37 0 -37 0 -5 -587z"/>
<path d="M5785 3842 c1 -438 4 -805 8 -816 5 -13 11 -15 20 -8 8 7 142 11 382
13 204 1 378 6 387 10 10 6 19 5 23 -1 4 -6 16 -8 27 -4 11 3 26 7 32 8 6 1
17 5 24 10 8 5 18 4 25 -3 6 -6 18 -11 27 -10 10 0 9 3 -5 9 -19 8 -19 9 -1 9
11 1 27 -6 37 -15 19 -17 55 -12 44 6 -3 6 4 10 18 10 13 0 45 11 71 25 26 14
55 25 64 25 9 0 30 7 46 15 53 28 67 18 76 -54 4 -34 10 -46 28 -52 21 -8 22
-6 22 47 0 35 4 53 10 49 6 -4 9 -33 8 -65 l-2 -59 -415 -1 c-228 0 -417 -3
-420 -5 -2 -3 502 -4 1120 -3 1059 3 1084 3 427 8 -597 4 -696 7 -689 19 6 10
35 16 90 19 65 4 79 7 70 18 -8 9 -3 32 16 86 32 87 44 103 86 106 18 1 37 6
43 11 10 8 65 17 150 24 22 2 44 10 51 21 7 9 16 16 20 15 4 -1 15 4 26 11 13
10 15 18 8 26 -6 8 -4 14 7 18 14 5 13 10 -10 31 -25 23 -35 25 -126 25 l-98
0 -11 30 c-7 22 -16 30 -33 30 -13 0 -31 9 -41 20 -9 11 -14 20 -10 20 4 0 -2
6 -13 14 -17 13 -19 26 -17 123 5 224 5 222 17 217 17 -7 40 22 32 41 -3 9 1
18 10 22 8 3 13 12 10 19 -3 8 1 14 9 14 8 0 15 7 15 15 0 8 7 15 15 15 8 0
15 5 15 11 0 5 5 7 10 4 6 -3 10 -1 10 5 0 6 6 8 13 4 9 -5 9 -4 0 6 -10 11
-7 17 17 32 17 10 30 24 30 32 0 21 27 40 34 24 3 -7 4 -3 2 10 -3 14 1 22 10
22 8 0 14 5 14 11 0 5 10 9 23 7 18 -2 22 1 20 22 -1 14 1 19 3 13 8 -18 29
-16 45 4 12 14 12 16 0 8 -7 -4 -4 6 9 23 13 17 28 28 36 25 14 -5 20 12 7 20
-5 2 -2 2 6 0 7 -2 28 6 47 18 19 11 34 17 34 12 0 -4 5 0 11 10 6 9 14 15 20
12 5 -4 9 -1 9 5 0 6 5 8 10 5 6 -3 10 -1 10 5 0 6 4 9 9 6 5 -4 11 0 14 6 3
10 7 10 18 1 12 -10 19 -8 33 9 12 14 20 17 25 9 4 -6 21 -9 39 -7 19 2 29 -1
25 -7 -3 -5 0 -8 8 -5 7 2 24 -6 36 -18 13 -13 29 -21 37 -18 7 3 19 -7 27
-23 8 -17 22 -28 34 -28 11 0 25 -3 32 -8 6 -4 14 -3 19 4 4 8 3 9 -4 5 -7 -4
-12 -3 -12 3 0 5 8 12 18 16 25 7 82 97 89 139 3 18 16 45 29 59 12 14 20 28
17 31 -4 3 -1 6 5 6 7 0 12 7 12 15 0 12 27 23 31 13 0 -2 5 -325 10 -718 10
-847 9 -811 30 -799 9 4 19 5 23 2 3 -3 5 266 4 598 -1 358 -5 520 -8 399 -7
-273 -15 -169 -19 235 -2 309 1 373 20 343 7 -10 9 -9 9 5 0 16 -13 18 -180
17 -99 -1 -180 -5 -180 -10 0 -10 -107 -37 -200 -52 -36 -5 -184 -8 -330 -6
-234 3 -269 5 -299 21 -22 13 -48 18 -77 15 -35 -2 -45 0 -50 14 -4 15 -17 18
-74 18 -66 0 -70 -1 -76 -25 -7 -30 -3 -29 -50 -8 -46 19 -193 22 -404 8 -150
-10 -338 -11 -565 -1 -82 3 -166 2 -187 -3 -31 -7 -37 -6 -41 10 -3 12 -14 19
-29 19 l-23 0 0 -798z m1645 -462 c0 -22 -4 -40 -9 -40 -6 0 -9 18 -9 40 0 22
4 40 9 40 5 0 9 -18 9 -40z m-635 -330 c3 -5 2 -10 -4 -10 -5 0 -13 5 -16 10
-3 6 -2 10 4 10 5 0 13 -4 16 -10z"/>
<path d="M8588 3933 c2 -390 7 -721 12 -738 5 -17 9 287 9 708 1 583 -2 737
-11 737 -10 0 -12 -146 -10 -707z"/>
<path d="M8644 3988 c3 -359 9 -722 13 -805 6 -162 23 -211 23 -69 0 101 1
102 94 108 34 2 41 7 53 36 28 67 35 138 19 186 -13 37 -15 122 -13 538 0 271
-2 514 -6 540 -6 33 -17 56 -37 75 -21 19 -26 29 -17 35 7 4 -21 8 -62 8 l-74
0 7 -652z"/>
<path d="M9260 4636 c0 -2 9 -6 20 -9 11 -3 20 -1 20 4 0 5 -9 9 -20 9 -11 0
-20 -2 -20 -4z"/>
<path d="M9425 4620 c-3 -5 -2 -10 4 -10 5 0 13 5 16 10 3 6 2 10 -4 10 -5 0
-13 -4 -16 -10z"/>
<path d="M9260 4609 c0 -5 5 -7 10 -4 6 3 10 8 10 11 0 2 -4 4 -10 4 -5 0 -10
-5 -10 -11z"/>
<path d="M9283 4583 c9 -2 23 -2 30 0 6 3 -1 5 -18 5 -16 0 -22 -2 -12 -5z"/>
<path d="M9405 4580 c-4 -6 14 -10 51 -10 67 0 68 5 2 14 -29 4 -49 3 -53 -4z"/>
<path d="M2972 3760 c0 -19 2 -27 5 -17 2 9 2 25 0 35 -3 9 -5 1 -5 -18z"/>
<path d="M4282 3415 c0 -16 2 -22 5 -12 2 9 2 23 0 30 -3 6 -5 -1 -5 -18z"/>
<path d="M8170 3430 c0 -9 75 -15 123 -11 10 2 21 -8 26 -22 16 -42 86 -52
121 -17 46 46 13 60 -144 60 -77 0 -126 -4 -126 -10z"/>
<path d="M9014 3375 c-9 -22 3 -45 22 -45 13 0 14 3 5 14 -8 10 -9 16 -1 21
15 9 12 25 -5 25 -9 0 -18 -7 -21 -15z"/>
<path d="M9067 3374 c-14 -14 -7 -35 11 -32 9 2 17 10 17 17 0 16 -18 25 -28
15z"/>
<path d="M7899 3332 c-27 -23 -21 -48 16 -62 15 -6 25 -17 25 -29 0 -43 85
-56 120 -19 18 20 19 23 3 40 -9 10 -22 18 -29 18 -7 0 -11 6 -8 14 8 22 -36
56 -72 56 -17 0 -42 -8 -55 -18z m54 -18 c8 -8 -3 -34 -14 -34 -5 0 -9 9 -9
20 0 19 11 26 23 14z m57 -80 c0 -8 -9 -14 -20 -14 -19 0 -27 19 -14 33 10 9
34 -4 34 -19z"/>
<path d="M9239 3203 c-12 -15 -12 -16 6 -9 46 19 55 19 49 2 -4 -12 0 -16 15
-16 12 0 21 4 21 10 0 5 -7 7 -15 4 -11 -5 -13 -2 -9 10 9 23 -49 22 -67 -1z"/>
<path d="M6010 2979 c-19 -4 29 -7 108 -8 78 0 142 2 142 7 0 9 -200 10 -250
1z"/>
<path d="M8933 2983 c197 -2 517 -2 710 0 194 1 33 2 -358 2 -390 0 -549 -1
-352 -2z"/>
<path d="M4774 2855 c-23 -35 -12 -70 28 -84 42 -15 78 7 78 49 0 31 -15 46
-42 42 -9 -2 -19 2 -23 8 -10 16 -23 12 -41 -15z m36 -1 c0 -3 -7 -12 -15 -21
-20 -19 -32 -9 -15 12 12 15 30 20 30 9z m26 -51 c-10 -10 -19 5 -10 18 6 11
8 11 12 0 2 -7 1 -15 -2 -18z"/>
<path d="M9834 2865 c19 -19 20 -31 5 -40 -6 -4 -17 1 -24 11 -13 17 -14 17
-15 2 0 -20 23 -44 52 -54 16 -5 27 -1 40 16 10 12 18 27 18 34 0 6 -7 3 -14
-7 -14 -18 -20 -14 -41 22 -6 11 -3 13 14 8 14 -3 21 -1 18 6 -2 7 -18 13 -37
15 -31 3 -32 2 -16 -13z"/>
<path d="M8310 2765 c6 -8 9 -19 5 -25 -3 -6 3 -10 14 -10 12 0 21 5 21 12 0
9 3 9 11 1 7 -7 9 -19 5 -28 -5 -14 -9 -15 -21 -5 -12 10 -16 9 -21 -4 -7 -19
-22 -12 -34 18 -7 16 -9 17 -9 4 -1 -24 39 -59 64 -56 28 4 47 45 32 72 -16
28 -28 36 -56 36 -19 0 -21 -3 -11 -15z"/>
<path d="M6510 2755 c7 -8 9 -15 4 -15 -5 0 -2 -5 6 -10 13 -8 12 -10 -4 -10
-13 0 -16 -5 -12 -17 5 -15 4 -15 -9 1 -13 17 -15 18 -15 3 0 -9 11 -24 25
-33 23 -15 27 -15 49 -1 23 15 42 57 26 57 -4 0 -10 9 -13 20 -4 15 -14 20
-37 20 -28 0 -31 -2 -20 -15z m41 -58 c-8 -8 -11 -5 -11 9 0 27 14 41 18 19 2
-9 -1 -22 -7 -28z"/>
<path d="M6879 2579 c-6 -13 -9 -46 -5 -83 3 -33 5 -152 5 -263 l1 -203 66 0
c48 0 65 -3 62 -12 -8 -24 -65 -32 -92 -14 -26 16 -48 4 -29 -15 14 -14 883
-12 899 2 9 8 13 83 14 303 1 262 -1 294 -15 300 -9 3 -214 6 -455 6 -437 0
-439 0 -451 -21z m460 -5 c7 -6 -58 -8 -121 -3 -26 2 -23 3 17 8 49 7 95 4
104 -5z m301 6 c20 0 22 -2 10 -10 -18 -11 -230 -12 -230 -1 0 17 -5 17 220
11z m80 -545 c26 -6 28 -8 17 -27 -11 -18 -19 -19 -82 -14 -38 4 -74 6 -80 6
-108 -9 -436 -8 -457 1 -70 28 -41 31 360 33 145 1 165 3 173 19 9 15 12 15
24 3 8 -8 28 -17 45 -21z"/>
<path d="M6327 2532 c-15 -16 -17 -53 -17 -308 0 -331 -1 -327 70 -322 l45 3
3 309 c2 219 -1 313 -9 322 -17 20 -73 17 -92 -4z m73 -37 c0 -8 -7 -15 -16
-15 -8 0 -13 4 -9 9 3 5 -3 12 -12 14 -11 3 -8 5 10 6 18 1 27 -4 27 -14z
m-43 -377 c-1 -62 -3 -14 -3 107 0 121 2 172 3 113 2 -59 2 -158 0 -220z m30
195 c-2 -16 -4 -5 -4 22 0 28 2 40 4 28 2 -13 2 -35 0 -50z m0 -245 c-1 -40
-3 -10 -3 67 0 77 1 110 3 73 2 -37 2 -100 0 -140z"/>
<path d="M9294 2484 c-18 -14 -18 -15 4 -4 12 6 22 13 22 15 0 8 -5 6 -26 -11z"/>
<path d="M9224 2444 c-18 -14 -18 -15 4 -4 12 6 22 13 22 15 0 8 -5 6 -26 -11z"/>
<path d="M9168 2412 l-28 -17 2 -185 2 -185 3 173 c2 110 7 172 14 172 6 0 7
5 3 11 -4 7 4 20 17 30 30 23 23 24 -13 1z"/>
<path d="M9853 2383 c-3 -10 -9 -22 -11 -28 -3 -5 2 -4 11 4 17 13 18 3 15
-187 -2 -111 0 -202 5 -202 4 0 7 97 7 215 0 141 -4 215 -10 215 -6 0 -13 -8
-17 -17z"/>
<path d="M8042 2360 c-33 -20 -71 -86 -72 -123 0 -21 28 -92 35 -86 2 3 0 24
-6 47 -13 60 3 115 42 143 37 26 98 35 130 20 23 -12 23 -11 5 3 -28 22 -94
20 -134 -4z"/>
<path d="M8070 2317 c0 -7 14 -33 32 -57 l32 -43 23 48 c26 57 21 65 -44 65
-29 0 -43 -4 -43 -13z"/>
<path d="M9789 2293 c-13 -16 -12 -17 4 -4 16 13 21 21 13 21 -2 0 -10 -8 -17
-17z"/>
<path d="M9709 2203 l-34 -38 38 34 c34 33 42 41 34 41 -2 0 -19 -17 -38 -37z"/>
<path d="M10031 2196 c-62 -35 -69 -149 -12 -193 29 -22 35 -14 10 13 -20 21
-24 36 -23 81 0 48 4 59 28 79 33 29 66 31 97 5 18 -14 23 -31 27 -77 5 -70
-13 -100 -68 -115 l-35 -9 39 5 c59 7 88 40 88 102 0 60 -13 88 -52 108 -35
18 -67 19 -99 1z"/>
<path d="M10270 2102 c0 -68 4 -112 10 -112 6 0 10 37 11 88 2 102 0 114 -12
127 -5 5 -9 -35 -9 -103z"/>
<path d="M10363 2203 c48 -5 57 -26 57 -129 0 -56 3 -74 14 -74 11 0 13 17 9
88 -6 101 -21 123 -82 120 l-36 -1 38 -4z"/>
<path d="M10572 2203 c-21 -8 -42 -60 -42 -106 0 -44 28 -97 51 -97 6 0 1 12
-10 26 -32 40 -29 126 4 159 24 24 23 29 -3 18z"/>
<path d="M10663 2192 c9 -10 22 -33 28 -50 14 -40 34 -43 24 -4 -7 29 -42 72
-58 72 -6 0 -3 -8 6 -18z"/>
<path d="M8127 2183 c-4 -3 -7 -15 -7 -25 0 -10 -6 -18 -12 -18 -9 0 -8 -4 2
-10 13 -8 12 -10 -3 -10 -10 0 -15 -4 -12 -10 3 -5 1 -10 -5 -10 -6 0 -8 -4
-5 -10 3 -5 28 -10 55 -10 39 0 55 5 77 26 15 15 20 21 10 14 -15 -11 -21 -9
-42 10 -14 13 -27 31 -31 42 -6 19 -16 23 -27 11z"/>
<path d="M9511 2174 c0 -11 3 -14 6 -6 3 7 2 16 -1 19 -3 4 -6 -2 -5 -13z"/>
<path d="M9630 2113 c-30 -31 -35 -38 -14 -22 28 22 70 69 62 69 -2 0 -24 -21
-48 -47z"/>
<path d="M9364 2104 c-18 -14 -18 -15 4 -4 12 6 22 13 22 15 0 8 -5 6 -26 -11z"/>
<path d="M9514 1930 c0 -107 1 -126 3 -55 l4 110 37 40 37 40 -37 -34 -37 -34
-4 49 c-2 27 -3 -25 -3 -116z"/>
<path d="M10690 2035 c0 -7 -8 -19 -17 -24 -10 -6 -13 -11 -7 -11 11 0 44 32
44 43 0 4 -4 7 -10 7 -5 0 -10 -7 -10 -15z"/>
<path d="M9166 1985 c-11 -8 -15 -15 -9 -15 6 0 16 7 23 15 16 19 11 19 -14 0z"/>
<path d="M10613 1993 c9 -2 23 -2 30 0 6 3 -1 5 -18 5 -16 0 -22 -2 -12 -5z"/>
<path d="M8318 1782 c8 -5 13 -13 12 -18 -1 -5 4 -10 11 -13 7 -2 9 1 4 9 -6
10 -4 12 9 7 12 -5 16 -3 14 5 -3 7 -18 14 -34 16 -20 2 -25 0 -16 -6z"/>
<path d="M6503 1773 c12 -3 16 -12 13 -30 -7 -36 -14 -40 -31 -17 -19 26 -19
4 1 -24 21 -30 59 -29 80 3 8 13 12 30 8 36 -5 9 -10 6 -15 -9 -5 -12 -13 -22
-20 -22 -6 0 -8 7 -5 16 3 9 6 20 6 25 0 5 7 9 16 9 8 0 12 5 9 10 -3 6 -23 9
-43 9 -20 -1 -29 -3 -19 -6z"/>
<path d="M8281 1745 c-2 -20 30 -55 49 -55 35 0 50 12 49 39 -1 17 -3 20 -6 9
-5 -21 -14 -23 -31 -6 -9 9 -13 7 -18 -5 -8 -23 -19 -21 -32 6 -6 12 -11 17
-11 12z"/>
<path d="M11552 1595 c0 -16 2 -22 5 -12 2 9 2 23 0 30 -3 6 -5 -1 -5 -18z"/>
</g>
</svg>
